<?xml version="1.0" encoding="UTF-8" standalone="no"?><!DOCTYPE svg PUBLIC "-//W3C//DTD SVG 1.1//EN" "http://www.w3.org/Graphics/SVG/1.1/DTD/svg11.dtd"><svg width="100%" height="100%" viewBox="0 0 947 203" version="1.1" xmlns="http://www.w3.org/2000/svg" xmlns:xlink="http://www.w3.org/1999/xlink" xml:space="preserve" xmlns:serif="http://www.serif.com/" style="fill-rule:evenodd;clip-rule:evenodd;stroke-linejoin:round;stroke-miterlimit:2;"><rect id="Wordmark-cropped" serif:id="Wordmark cropped" x="0.264" y="0.233" width="946.2" height="202.7" style="fill:none;"/><clipPath id="_clip1"><rect x="0.264" y="0.233" width="946.2" height="202.7"/></clipPath><g clip-path="url(#_clip1)"><g><path d="M64.7,151.489c-36.498,-5.654 -64.436,-37.212 -64.436,-75.295c0,-10.713 2.259,-21.273 6.592,-31.001c0.357,-0.796 1.036,-1.401 1.867,-1.666c0.831,-0.265 1.735,-0.164 2.487,0.278c11.671,6.859 55.056,32.364 63.729,37.463c0.939,0.552 1.515,1.559 1.515,2.648l0,51.534l-0.31,0.063c-0.543,0.108 -1.076,0.26 -1.595,0.455c-2.966,1.112 -5.075,2.68 -6.558,4.349c-2.218,2.494 -3.426,5.506 -3.426,9.11c-0,0.712 0.045,1.399 0.135,2.062Z" style="fill:#a43594;"/><path d="M76.454,64.855c0,1.102 -0.59,2.119 -1.546,2.666c-0.956,0.547 -2.132,0.54 -3.082,-0.018c-12.276,-7.217 -45.41,-26.697 -55.404,-32.572c-0.751,-0.441 -1.279,-1.18 -1.453,-2.034c-0.174,-0.853 0.023,-1.741 0.541,-2.441c13.1,-17.454 33.116,-28.502 54.95,-30.223c-1.375,0.82 -2.437,1.704 -3.241,2.556c-2.413,2.554 -3.688,5.649 -3.688,9.339c0,3.379 1.119,6.281 3.269,8.739c1.737,1.985 4.278,3.707 8,4.451c0.509,0.102 1.025,0.165 1.543,0.189l0.111,0.005l0,39.343Z" style="fill:#f08e00;"/><g><path d="M107.156,82.157l-0,56.606c-0,1.932 0.31,3.364 0.932,4.296c0.621,0.932 1.622,1.605 3.002,2.019l4.659,1.035c1.863,0.76 2.795,1.898 2.795,3.417c0,2.347 -1.346,3.52 -4.038,3.52l-35.406,-0c-1.312,-0 -2.347,-0.311 -3.106,-0.932c-0.76,-0.621 -1.139,-1.449 -1.139,-2.485c-0,-0.897 0.276,-1.656 0.828,-2.277c0.552,-0.621 1.38,-1.139 2.485,-1.553l4.659,-0.932c1.38,-0.414 2.381,-1.07 3.002,-1.967c0.621,-0.897 0.932,-2.278 0.932,-4.141l-0,-118.544c-0,-1.587 -0.259,-2.726 -0.777,-3.416c-0.517,-0.691 -1.328,-1.105 -2.433,-1.243l-6.729,-0.31c-1.035,-0.207 -1.795,-0.587 -2.278,-1.139c-0.483,-0.552 -0.724,-1.208 -0.724,-1.967c-0,-0.897 0.293,-1.657 0.88,-2.278c0.586,-0.621 1.57,-1.173 2.95,-1.656l17.6,-5.798c1.795,-0.69 3.261,-1.191 4.4,-1.501c1.139,-0.311 2.191,-0.466 3.158,-0.466c1.38,-0 2.45,0.431 3.209,1.294c0.759,0.863 1.139,2.019 1.139,3.468l-0,69.31c6.649,-6.009 12.705,-10.356 18.169,-13.041c5.97,-2.933 11.716,-4.4 17.238,-4.4c8.006,0 14.528,2.537 19.567,7.61c5.038,5.073 7.557,12.165 7.557,21.276l0,52.49c0,1.933 0.363,3.399 1.087,4.4c0.725,1.001 1.778,1.708 3.158,2.123l4.348,0.931c1.035,0.414 1.812,0.915 2.33,1.502c0.517,0.586 0.776,1.328 0.776,2.225c0,1.036 -0.362,1.864 -1.087,2.485c-0.725,0.621 -1.777,0.932 -3.158,0.932l-35.406,-0c-2.761,-0 -4.142,-1.173 -4.142,-3.52c0,-1.519 0.967,-2.657 2.899,-3.417l4.762,-1.035c1.45,-0.414 2.485,-1.122 3.106,-2.122c0.622,-1.001 0.932,-2.502 0.932,-4.504l0,-48.556c0,-6.626 -1.605,-11.596 -4.814,-14.909c-3.209,-3.313 -7.471,-4.969 -12.786,-4.969c-3.451,-0 -7.109,0.845 -10.974,2.536c-3.865,1.691 -7.903,4.469 -12.113,8.335l-1.449,1.268Z" style="fill:#211a14;"/><path d="M211.361,103.355c0.441,11.784 3.529,20.877 9.262,27.28c6.212,6.937 14.287,10.405 24.226,10.405c6.833,0 12.648,-1.656 17.445,-4.969c4.797,-3.313 8.092,-7.489 9.887,-12.527c0.69,-0.967 1.294,-1.64 1.812,-2.019c0.517,-0.38 1.087,-0.57 1.708,-0.57c0.759,0.069 1.363,0.397 1.812,0.984c0.448,0.586 0.638,1.432 0.569,2.536c-0.414,5.522 -2.347,10.63 -5.798,15.323c-3.451,4.693 -8.092,8.455 -13.924,11.285c-5.832,2.83 -12.51,4.245 -20.033,4.245c-9.249,-0 -17.324,-1.985 -24.226,-5.953c-6.902,-3.969 -12.251,-9.543 -16.047,-16.721c-3.796,-7.178 -5.694,-15.529 -5.694,-25.054c0,-9.732 1.898,-18.394 5.694,-25.987c3.796,-7.592 9.214,-13.58 16.254,-17.962c7.04,-4.383 15.357,-6.575 24.951,-6.575c7.799,0 14.597,1.588 20.395,4.763c5.797,3.175 10.318,7.54 13.562,13.097c3.244,5.556 4.866,11.923 4.866,19.101c0,3.037 -0.863,5.349 -2.588,6.937c-1.726,1.587 -4.21,2.381 -7.454,2.381l-56.679,-0Zm0.025,-6.419l40.917,-0c3.244,-0 4.866,-1.518 4.866,-4.555c0,-8.49 -1.898,-15.15 -5.694,-19.982c-3.796,-4.831 -8.765,-7.247 -14.908,-7.247c-5.038,-0 -9.456,1.415 -13.252,4.245c-3.796,2.829 -6.746,6.867 -8.851,12.113c-1.77,4.41 -2.796,9.552 -3.078,15.426Z" style="fill:#211a14;"/><path d="M334.118,159.527l-35.537,-83.918c-1.243,-3.037 -2.623,-5.16 -4.141,-6.368c-1.519,-1.208 -3.693,-2.157 -6.523,-2.847c-1.242,-0.483 -2.105,-1.018 -2.588,-1.605c-0.483,-0.586 -0.725,-1.294 -0.725,-2.122c0,-1.104 0.397,-1.967 1.191,-2.588c0.794,-0.621 1.812,-0.932 3.054,-0.932l39.652,0c1.311,0 2.329,0.293 3.054,0.88c0.724,0.587 1.087,1.467 1.087,2.64c-0,0.897 -0.276,1.639 -0.829,2.226c-0.552,0.587 -1.449,1.053 -2.691,1.398l-4.97,0.931c-2.553,0.553 -4.037,1.605 -4.451,3.158c-0.415,1.553 -0,3.883 1.242,6.989l23.375,58.343l22.488,-57.308c1.312,-3.382 1.674,-5.919 1.087,-7.61c-0.586,-1.691 -2.226,-2.847 -4.917,-3.468l-4.763,-0.932c-1.242,-0.345 -2.157,-0.828 -2.743,-1.449c-0.587,-0.621 -0.88,-1.381 -0.88,-2.278c-0,-1.173 0.379,-2.053 1.139,-2.64c0.759,-0.587 1.829,-0.88 3.209,-0.88l27.539,0c1.38,0 2.433,0.293 3.157,0.88c0.725,0.587 1.087,1.467 1.087,2.64c0,0.759 -0.224,1.432 -0.673,2.019c-0.448,0.587 -1.294,1.122 -2.536,1.605c-3.106,0.828 -5.47,1.984 -7.092,3.468c-1.622,1.484 -3.157,4.02 -4.607,7.61l-38.616,96.18c-2.968,7.385 -5.815,13.218 -8.541,17.497c-2.726,4.279 -5.66,7.333 -8.8,9.162c-3.14,1.83 -6.919,2.744 -11.337,2.744c-6.487,0 -11.595,-1.829 -15.322,-5.487c-3.727,-3.658 -5.59,-8.076 -5.59,-13.252c-0,-3.382 0.828,-6.074 2.484,-8.076c1.657,-2.001 3.831,-3.002 6.523,-3.002c2.553,0 4.538,0.794 5.953,2.381c1.414,1.588 2.502,3.831 3.261,6.73l0.932,3.623c0.414,2.347 1.207,4.107 2.381,5.281c1.173,1.173 2.588,1.76 4.244,1.76c1.726,-0 3.365,-0.587 4.918,-1.76c1.553,-1.174 3.14,-3.124 4.762,-5.85c1.622,-2.726 3.33,-6.436 5.125,-11.13l5.928,-14.643Z" style="fill:#211a14;"/><path d="M427.371,145.355l-0,41.757c-0,1.863 0.327,3.261 0.983,4.193c0.656,0.932 1.639,1.57 2.951,1.915l6.729,1.035c1.104,0.346 1.915,0.829 2.433,1.45c0.518,0.621 0.776,1.38 0.776,2.278c0,1.104 -0.362,1.949 -1.087,2.536c-0.724,0.587 -1.777,0.88 -3.157,0.88l-37.374,0c-1.38,0 -2.433,-0.293 -3.158,-0.88c-0.724,-0.587 -1.087,-1.432 -1.087,-2.536c0,-0.898 0.276,-1.64 0.828,-2.226c0.553,-0.587 1.381,-1.087 2.485,-1.502l4.348,-1.035c1.312,-0.345 2.295,-0.966 2.951,-1.863c0.656,-0.898 0.983,-2.278 0.983,-4.142l0,-109.95c0,-1.587 -0.258,-2.726 -0.776,-3.417c-0.518,-0.69 -1.329,-1.104 -2.433,-1.242l-6.729,-0.207c-1.036,-0.276 -1.795,-0.673 -2.278,-1.191c-0.483,-0.517 -0.725,-1.19 -0.725,-2.018c0,-0.898 0.294,-1.657 0.88,-2.278c0.587,-0.621 1.571,-1.173 2.951,-1.657l16.979,-5.797c1.725,-0.622 3.175,-1.087 4.348,-1.398c1.173,-0.311 2.208,-0.466 3.106,-0.466c1.449,0 2.553,0.414 3.313,1.242c0.759,0.829 1.138,1.968 1.138,3.417l0,10.111c3.303,-3.612 6.875,-6.637 10.716,-9.076c6.522,-4.141 13.648,-6.212 21.378,-6.212c7.8,0 14.701,1.967 20.706,5.902c6.005,3.934 10.733,9.421 14.184,16.461c3.451,7.04 5.176,15.254 5.176,24.641c0,10.629 -2.019,19.791 -6.056,27.487c-4.038,7.696 -9.473,13.597 -16.306,17.704c-6.833,4.107 -14.46,6.16 -22.88,6.16c-7.73,0 -14.58,-1.881 -20.551,-5.642c-2.056,-1.296 -3.971,-2.774 -5.745,-4.434Zm-0,-65.501l-0,54.66c2.225,2.899 4.727,5.264 7.505,7.096c4.659,3.071 9.646,4.607 14.96,4.607c5.246,-0 9.974,-1.467 14.184,-4.4c4.21,-2.934 7.523,-7.351 9.939,-13.252c2.415,-5.901 3.623,-13.269 3.623,-22.104c0,-8.559 -1.156,-15.702 -3.468,-21.431c-2.312,-5.729 -5.504,-10.06 -9.577,-12.993c-4.072,-2.934 -8.696,-4.4 -13.872,-4.4c-5.246,-0 -10.215,1.535 -14.909,4.607c-2.975,1.947 -5.77,4.484 -8.385,7.61Z" style="fill:#211a14;"/><path d="M531.472,103.355c0.441,11.784 3.529,20.877 9.263,27.28c6.211,6.937 14.287,10.405 24.225,10.405c6.833,0 12.648,-1.656 17.445,-4.969c4.797,-3.313 8.093,-7.489 9.887,-12.527c0.69,-0.967 1.294,-1.64 1.812,-2.019c0.517,-0.38 1.087,-0.57 1.708,-0.57c0.759,0.069 1.363,0.397 1.812,0.984c0.448,0.586 0.638,1.432 0.569,2.536c-0.414,5.522 -2.346,10.63 -5.797,15.323c-3.451,4.693 -8.093,8.455 -13.925,11.285c-5.832,2.83 -12.51,4.245 -20.033,4.245c-9.248,-0 -17.324,-1.985 -24.226,-5.953c-6.902,-3.969 -12.251,-9.543 -16.047,-16.721c-3.796,-7.178 -5.694,-15.529 -5.694,-25.054c0,-9.732 1.898,-18.394 5.694,-25.987c3.796,-7.592 9.215,-13.58 16.254,-17.962c7.04,-4.383 15.357,-6.575 24.951,-6.575c7.799,0 14.597,1.588 20.395,4.763c5.798,3.175 10.318,7.54 13.562,13.097c3.244,5.556 4.866,11.923 4.866,19.101c0,3.037 -0.862,5.349 -2.588,6.937c-1.725,1.587 -4.21,2.381 -7.454,2.381l-56.679,-0Zm0.025,-6.419l40.918,-0c3.243,-0 4.865,-1.518 4.865,-4.555c0,-8.49 -1.898,-15.15 -5.694,-19.982c-3.796,-4.831 -8.765,-7.247 -14.908,-7.247c-5.038,-0 -9.455,1.415 -13.252,4.245c-3.796,2.829 -6.746,6.867 -8.851,12.113c-1.77,4.41 -2.796,9.552 -3.078,15.426Z" style="fill:#211a14;"/><path d="M643.953,81.993l-0,56.77c-0,1.932 0.328,3.364 0.984,4.296c0.655,0.932 1.639,1.605 2.95,2.019l4.659,1.035c1.863,0.76 2.795,1.898 2.795,3.417c0,2.347 -1.346,3.52 -4.037,3.52l-35.407,-0c-1.312,-0 -2.347,-0.311 -3.106,-0.932c-0.759,-0.621 -1.139,-1.449 -1.139,-2.485c-0,-0.897 0.276,-1.639 0.828,-2.225c0.552,-0.587 1.346,-1.088 2.381,-1.502l4.763,-1.035c1.38,-0.414 2.381,-1.07 3.002,-1.967c0.621,-0.897 0.932,-2.278 0.932,-4.141l-0,-61.291c-0,-1.587 -0.242,-2.709 -0.725,-3.365c-0.483,-0.655 -1.277,-1.087 -2.381,-1.294l-6.833,-0.207c-1.035,-0.276 -1.794,-0.673 -2.278,-1.191c-0.483,-0.517 -0.724,-1.19 -0.724,-2.018c-0,-0.898 0.293,-1.657 0.88,-2.278c0.586,-0.621 1.57,-1.173 2.95,-1.657l17.6,-5.797c1.795,-0.622 3.261,-1.087 4.4,-1.398c1.139,-0.311 2.192,-0.466 3.158,-0.466c1.449,0 2.536,0.414 3.261,1.242c0.725,0.829 1.087,1.968 1.087,3.417l-0,11.955c6.587,-5.943 12.627,-10.256 18.118,-12.939c6.004,-2.933 11.767,-4.4 17.289,-4.4c8.144,0 14.701,2.52 19.67,7.558c4.97,5.039 7.454,12.044 7.454,21.017l0,52.801c0,1.933 0.363,3.399 1.087,4.4c0.725,1.001 1.778,1.708 3.158,2.123l4.348,0.931c1.036,0.414 1.812,0.915 2.33,1.502c0.517,0.586 0.776,1.328 0.776,2.225c0,1.036 -0.345,1.864 -1.035,2.485c-0.69,0.621 -1.76,0.932 -3.209,0.932l-35.407,-0c-2.761,-0 -4.142,-1.173 -4.142,-3.52c0,-1.519 0.967,-2.657 2.899,-3.417l4.763,-1.035c1.449,-0.414 2.484,-1.122 3.105,-2.122c0.622,-1.001 0.932,-2.502 0.932,-4.504l0,-48.867c0,-6.488 -1.587,-11.371 -4.762,-14.649c-3.175,-3.279 -7.454,-4.918 -12.838,-4.918c-3.52,-0 -7.229,0.845 -11.129,2.536c-3.9,1.691 -7.92,4.435 -12.061,8.231l-1.346,1.208Z" style="fill:#211a14;"/><path d="M761.769,81.993l-0,56.77c-0,1.932 0.328,3.364 0.983,4.296c0.656,0.932 1.64,1.605 2.951,2.019l4.659,1.035c1.863,0.76 2.795,1.898 2.795,3.417c0,2.347 -1.346,3.52 -4.038,3.52l-35.406,-0c-1.312,-0 -2.347,-0.311 -3.106,-0.932c-0.76,-0.621 -1.139,-1.449 -1.139,-2.485c-0,-0.897 0.276,-1.639 0.828,-2.225c0.552,-0.587 1.346,-1.088 2.381,-1.502l4.763,-1.035c1.38,-0.414 2.381,-1.07 3.002,-1.967c0.621,-0.897 0.932,-2.278 0.932,-4.141l-0,-61.291c-0,-1.587 -0.242,-2.709 -0.725,-3.365c-0.483,-0.655 -1.277,-1.087 -2.381,-1.294l-6.833,-0.207c-1.035,-0.276 -1.795,-0.673 -2.278,-1.191c-0.483,-0.517 -0.724,-1.19 -0.724,-2.018c-0,-0.898 0.293,-1.657 0.88,-2.278c0.586,-0.621 1.57,-1.173 2.95,-1.657l17.6,-5.797c1.795,-0.622 3.261,-1.087 4.4,-1.398c1.139,-0.311 2.191,-0.466 3.158,-0.466c1.449,0 2.536,0.414 3.261,1.242c0.724,0.829 1.087,1.968 1.087,3.417l-0,11.955c6.587,-5.943 12.626,-10.256 18.117,-12.939c6.005,-2.933 11.768,-4.4 17.29,-4.4c8.144,0 14.701,2.52 19.67,7.558c4.97,5.039 7.454,12.044 7.454,21.017l0,52.801c0,1.933 0.363,3.399 1.087,4.4c0.725,1.001 1.778,1.708 3.158,2.123l4.348,0.931c1.035,0.414 1.812,0.915 2.33,1.502c0.517,0.586 0.776,1.328 0.776,2.225c0,1.036 -0.345,1.864 -1.035,2.485c-0.69,0.621 -1.76,0.932 -3.21,0.932l-35.407,-0c-2.76,-0 -4.141,-1.173 -4.141,-3.52c0,-1.519 0.967,-2.657 2.899,-3.417l4.762,-1.035c1.45,-0.414 2.485,-1.122 3.106,-2.122c0.622,-1.001 0.932,-2.502 0.932,-4.504l0,-48.867c0,-6.488 -1.587,-11.371 -4.762,-14.649c-3.175,-3.279 -7.454,-4.918 -12.838,-4.918c-3.52,-0 -7.23,0.845 -11.129,2.536c-3.9,1.691 -7.92,4.435 -12.061,8.231l-1.346,1.208Z" style="fill:#211a14;"/><path d="M889.861,159.527l-35.537,-83.918c-1.243,-3.037 -2.623,-5.16 -4.142,-6.368c-1.518,-1.208 -3.692,-2.157 -6.522,-2.847c-1.242,-0.483 -2.105,-1.018 -2.588,-1.605c-0.483,-0.586 -0.725,-1.294 -0.725,-2.122c0,-1.104 0.397,-1.967 1.191,-2.588c0.794,-0.621 1.812,-0.932 3.054,-0.932l39.651,0c1.312,0 2.33,0.293 3.055,0.88c0.724,0.587 1.087,1.467 1.087,2.64c-0,0.897 -0.276,1.639 -0.829,2.226c-0.552,0.587 -1.449,1.053 -2.691,1.398l-4.97,0.931c-2.553,0.553 -4.037,1.605 -4.451,3.158c-0.415,1.553 -0,3.883 1.242,6.989l23.375,58.343l22.488,-57.308c1.312,-3.382 1.674,-5.919 1.087,-7.61c-0.586,-1.691 -2.226,-2.847 -4.917,-3.468l-4.763,-0.932c-1.242,-0.345 -2.157,-0.828 -2.743,-1.449c-0.587,-0.621 -0.88,-1.381 -0.88,-2.278c-0,-1.173 0.379,-2.053 1.139,-2.64c0.759,-0.587 1.829,-0.88 3.209,-0.88l27.539,0c1.38,0 2.433,0.293 3.157,0.88c0.725,0.587 1.087,1.467 1.087,2.64c0,0.759 -0.224,1.432 -0.673,2.019c-0.448,0.587 -1.294,1.122 -2.536,1.605c-3.106,0.828 -5.47,1.984 -7.092,3.468c-1.622,1.484 -3.157,4.02 -4.607,7.61l-38.616,96.18c-2.968,7.385 -5.815,13.218 -8.541,17.497c-2.726,4.279 -5.66,7.333 -8.8,9.162c-3.141,1.83 -6.919,2.744 -11.337,2.744c-6.487,0 -11.595,-1.829 -15.322,-5.487c-3.727,-3.658 -5.59,-8.076 -5.59,-13.252c-0,-3.382 0.828,-6.074 2.484,-8.076c1.657,-2.001 3.831,-3.002 6.523,-3.002c2.553,0 4.538,0.794 5.953,2.381c1.414,1.588 2.501,3.831 3.261,6.73l0.931,3.623c0.415,2.347 1.208,4.107 2.382,5.281c1.173,1.173 2.588,1.76 4.244,1.76c1.726,-0 3.365,-0.587 4.918,-1.76c1.553,-1.174 3.14,-3.124 4.762,-5.85c1.622,-2.726 3.33,-6.436 5.125,-11.13l5.928,-14.643Z" style="fill:#211a14;"/></g></g></g></svg>