<?xml version="1.0" encoding="UTF-8" standalone="no"?><!DOCTYPE svg PUBLIC "-//W3C//DTD SVG 1.1//EN"
  "http://www.w3.org/Graphics/SVG/1.1/DTD/svg11.dtd">
<svg width="100%" height="100%" viewBox="0 0 148 355" version="1.1"
     xmlns="http://www.w3.org/2000/svg"
     xml:space="preserve" xmlns:serif="http://www.serif.com/"
     style="fill-rule:evenodd;clip-rule:evenodd;stroke-linejoin:round;stroke-miterlimit:2;"><rect id="Premium-laurel-leading" serif:id="Premium laurel leading" x="-0" y="0" width="147.917" height="354.167" style="fill:none;"/>
  <g><path d="M12.634,207.339c-2.155,-11.762 -3.262,-27.48 -4.126,-41.009c-0.394,-6.174 2.058,-20.292 7.246,-21.247c6.252,-1.151 10.402,7 13.712,13.905c-0.761,3.342 -1.401,7.024 -1.842,11.197c-1.271,12.01 -0.728,30.398 2.062,45.399c-6.389,-3.864 -12.249,-7.127 -17.052,-8.245Z" style="fill:#f08e00;"/>
    <path
      d="M40.052,109.121c-4.444,-10.83 -4.801,-12.484 -5.24,-17.27c-1.517,-16.513 5.034,-29.459 6.213,-35.925c1.18,-6.467 1.238,-21.422 6.86,-32.914c5.298,-10.831 20.915,-23.811 27.433,-19.275c4.927,3.429 -5.06,9.866 -3.456,17.99c1.892,9.58 7.221,19.158 10.152,27.425c-0.189,0.166 -0.374,0.327 -0.555,0.482c-4.007,3.45 -9.47,6.183 -14.744,9.925c-7.52,5.336 -14.704,12.128 -19.632,22.377c-4.309,8.962 -5.844,18.262 -6.779,27.318l-0.252,-0.133Z"
      style="fill:#f08e00;"/>
    <path
      d="M47.459,226.137c-0.742,-2.267 -1.432,-4.603 -2.054,-6.973c-3.754,-14.294 -4.617,-34.797 -3.279,-47.444c0.703,-6.641 1.997,-11.815 3.457,-16.377c-0.839,-4.546 -2.177,-7.801 -3.825,-11.246c-2.586,-5.406 -4.682,-7.519 -7.02,-9.274c-2.902,-2.177 -7.98,2.491 -10.804,-4.223c-2.067,-4.914 0.813,-7.721 4.135,-8.851c6.4,-2.175 7.866,3.257 10.318,6.024c2.375,2.68 8.134,8.667 10.528,18.133c1.281,-3.585 2.451,-7.185 3.23,-11.361c2.641,-14.157 0.639,-30.812 8.081,-46.29c7.442,-15.477 22.119,-20.14 30.748,-27.569c12.062,-10.384 44.903,-46.976 54.269,-35.605c8.135,9.877 -11.518,41.326 -14.98,52.655c-3.461,11.328 -5.833,18.939 -15.334,31.025c-9.502,12.086 -47.801,36.383 -57.091,55.678c-0.926,1.924 -1.656,4.394 -2.193,7.252c3.041,-2.767 4.934,-2.411 7.39,-3.98c3.382,-2.159 0.982,-7.538 6.772,-9.757c4.112,-1.576 6.31,-0.13 7.477,2.35c1.167,2.479 -0.161,10.356 -5.239,11.768c-4.888,1.36 -9.617,-2.125 -17.422,8.851c-0.017,0.343 -0.032,0.688 -0.045,1.036c1.859,4.908 5.479,8.231 8.473,7.224c3.978,-1.337 1.958,-6.377 7.033,-8.157c3.695,-1.297 7.119,-1.671 9.046,3.973c1.279,3.747 -2.021,7.582 -6.153,9.666c-2.716,1.369 -5.748,1.456 -8.221,2.115c-3.794,1.01 -6.449,0.215 -9.921,-2.462c0.508,6.82 1.605,13.793 3.268,20.022c2.109,7.893 4.977,14.914 7.173,20.749c-5.358,-2.816 -10.938,-5.239 -17.817,-8.952Z"
      style="fill:#f08e00;"/>
    <path
      d="M123.772,312.401c-3.917,-5.688 -8.016,-15.645 -13.391,-26.221c-6.543,-12.875 -14.677,-26.481 -25.183,-36.605c-2.035,-1.962 -3.962,-3.678 -5.816,-5.203c2.275,-24.43 10.641,-49.236 15.79,-48.76c6.944,0.642 14.992,24.016 16.42,30.5c1.429,6.484 -0.027,14.886 2.895,23.955c2.921,9.068 7.952,15.013 9.681,28.357c1.077,8.312 0.109,22.64 -0.396,33.977Z"
      style="fill:#f08e00;"/>
    <path
      d="M131.325,349.976c-5.228,6.19 -14.605,-9.923 -28.161,-18.318c-13.556,-8.396 -37.54,-0.278 -64.511,-32.633c-10.449,-12.534 -13.439,-24.709 -21.916,-38.527c-10.588,-17.259 -21.067,-30.731 -14.901,-37.133c6.548,-6.799 19.175,4.332 33.281,12.566c16.96,9.899 25.674,10.376 39.962,24.145c18.722,18.043 28.44,48.871 36.926,60.947c8.42,11.981 25.018,22.206 19.32,28.953Z"
      style="fill:#f08e00;"/></g></svg>
